<svg version="1.1" id="Layer_1" xmlns="http://www.w3.org/2000/svg" xmlns:xlink="http://www.w3.org/1999/xlink" x="0px" y="0px"
	 width="100%" viewBox="0 0 1887 536" enable-background="new 0 0 1887 536" xml:space="preserve">
<path fill="#FFFFFF" opacity="1.000000" stroke="none" 
	d="
M1208.000000,537.000000 
	C805.333313,537.000000 403.166656,537.000000 1.000000,537.000000 
	C1.000000,358.333344 1.000000,179.666672 1.000000,1.000000 
	C630.000000,1.000000 1259.000000,1.000000 1888.000000,1.000000 
	C1888.000000,179.666672 1888.000000,358.333344 1888.000000,537.000000 
	C1661.500000,537.000000 1435.000000,537.000000 1208.000000,537.000000 
M566.012756,243.524658 
	C564.996094,233.274109 564.658569,222.901978 562.848938,212.793381 
	C553.459473,160.344574 527.989929,116.979599 486.522736,83.715874 
	C439.894409,46.312042 386.349548,31.080315 326.844849,38.016502 
	C281.614349,43.288807 241.703644,61.220703 208.635361,92.340767 
	C152.552597,145.119446 129.743820,210.419785 142.343491,286.421875 
	C153.052307,351.018341 188.132233,400.327118 244.272507,433.939850 
	C287.523529,459.835419 334.554932,468.525757 384.475555,461.148193 
	C427.390717,454.805878 465.066132,437.017548 496.710083,407.524231 
	C543.835083,363.601929 567.032410,309.105103 566.012756,243.524658 
M711.136230,295.500000 
	C711.136230,281.733154 711.136230,267.966309 711.136230,254.146957 
	C727.410217,254.146957 742.988770,254.146957 758.694092,254.146957 
	C758.694092,280.172211 758.694092,305.898682 758.694092,332.097656 
	C753.977417,332.097656 749.550781,332.097656 745.299072,332.097656 
	C744.265137,335.620209 745.333191,336.729065 748.561768,336.715363 
	C771.223145,336.619080 793.885254,336.623535 816.546814,336.701843 
	C820.402344,336.715179 820.554626,335.025146 819.310486,331.847412 
	C814.939148,331.847412 810.660400,331.847412 806.247070,331.847412 
	C806.247070,278.790192 806.247070,226.091522 806.247070,172.889709 
	C810.995178,172.889709 815.410034,172.889709 819.824829,172.889709 
	C820.107910,172.332855 820.390930,171.776016 820.674011,171.219162 
	C819.389038,170.258789 818.110168,168.470688 816.818115,168.461060 
	C793.990967,168.290573 771.162048,168.370270 748.333862,168.303680 
	C744.459717,168.292389 744.444275,170.083466 745.534851,173.201843 
	C750.005981,173.201843 754.282227,173.201843 758.735779,173.201843 
	C758.735779,197.984009 758.735779,222.392441 758.735779,246.882782 
	C742.802124,246.882782 727.129150,246.882782 711.539185,246.882782 
	C711.539185,222.041580 711.539185,197.654022 711.539185,172.876556 
	C716.223938,172.876556 720.507690,172.876556 724.666016,172.876556 
	C725.677979,169.534698 724.827209,168.272583 721.514221,168.286346 
	C698.852783,168.380478 676.190674,168.374237 653.529114,168.295074 
	C650.071716,168.282990 649.592712,169.776566 650.680176,173.104584 
	C655.019226,173.104584 659.437256,173.104584 663.851929,173.104584 
	C663.851929,226.340240 663.851929,279.030090 663.851929,332.091248 
	C659.166199,332.091248 654.882080,332.091248 650.625793,332.091248 
	C649.571594,335.281311 650.136475,336.717499 653.555603,336.705475 
	C676.217163,336.625732 698.879272,336.617889 721.540710,336.709625 
	C725.344727,336.725006 725.579590,335.092712 724.443420,331.812531 
	C720.067139,331.812531 715.802490,331.812531 711.136292,331.812531 
	C711.136292,319.756989 711.136292,308.128479 711.136230,295.500000 
M1102.121460,336.547821 
	C1122.614014,336.586761 1143.106934,336.587463 1163.598999,336.702881 
	C1166.951172,336.721741 1168.294189,335.770142 1166.744263,332.008911 
	C1162.626465,332.008911 1158.529175,332.008911 1154.000244,332.008911 
	C1154.000244,329.797058 1154.000366,328.002533 1154.000366,326.207977 
	C1154.000122,304.546997 1154.148315,282.884308 1153.904541,261.226074 
	C1153.835815,255.119034 1153.194824,248.889282 1151.798584,242.955307 
	C1149.448242,232.966568 1143.518433,225.356277 1133.469238,222.204697 
	C1115.717163,216.637329 1093.118896,219.290771 1084.131592,243.364670 
	C1083.986694,243.752548 1083.692749,244.084747 1083.232666,244.819321 
	C1079.661743,230.893478 1071.464355,221.966370 1057.209717,220.298843 
	C1039.407227,218.216293 1024.550415,222.909363 1015.623657,240.511642 
	C1015.623657,234.486725 1015.623657,228.461792 1015.623657,222.158478 
	C996.855530,222.158478 978.710632,222.103409 960.568481,222.302597 
	C959.538452,222.313919 958.531189,224.409042 957.513367,225.534317 
	C957.909668,225.968796 958.305908,226.403259 958.702209,226.837738 
	C962.638672,226.837738 966.575073,226.837738 970.639404,226.837738 
	C970.639404,262.139923 970.639404,297.015411 970.639404,332.252808 
	C966.332153,332.252808 962.377136,332.252808 958.502563,332.252808 
	C957.107727,335.713104 958.301331,336.709930 961.462463,336.698914 
	C981.290344,336.629822 1001.118713,336.628601 1020.946594,336.698242 
	C1024.427856,336.710449 1025.002930,335.313843 1023.668823,332.326691 
	C1021.192871,332.190674 1018.756226,332.056824 1016.317200,331.922852 
	C1016.104614,331.212219 1015.846130,330.752380 1015.846802,330.292938 
	C1015.881836,306.800598 1015.506470,283.294250 1016.268005,259.824890 
	C1016.485168,253.133423 1019.649414,246.406281 1022.190430,239.983566 
	C1023.269653,237.255585 1025.885132,234.779587 1028.395142,233.048309 
	C1033.442017,229.567169 1037.927124,231.669235 1038.928345,237.725739 
	C1039.523804,241.328049 1039.937988,245.005615 1039.953125,248.651321 
	C1040.063110,275.143860 1040.056030,301.636871 1040.061890,328.129730 
	C1040.062256,329.403778 1039.836548,330.677887 1039.713989,331.974762 
	C1037.052368,332.108124 1034.752197,332.223358 1032.388306,332.341797 
	C1031.461426,335.010773 1031.548096,336.686005 1034.872803,336.679443 
	C1053.367920,336.642914 1071.863037,336.651459 1090.358154,336.670502 
	C1094.038452,336.674286 1094.007812,334.876495 1092.842529,332.318512 
	C1090.163574,332.171753 1087.729858,332.038452 1085.311768,331.905975 
	C1085.134644,331.068695 1084.947021,330.596130 1084.947144,330.123627 
	C1084.951538,306.796753 1084.619141,283.460754 1085.221313,260.148987 
	C1085.387207,253.722351 1087.891968,247.196594 1090.214233,241.052979 
	C1091.364380,238.010208 1094.142700,235.181396 1096.877563,233.224319 
	C1102.247559,229.381378 1106.986572,231.578522 1108.072876,238.039856 
	C1108.622925,241.311996 1109.016968,244.653687 1109.030640,247.965805 
	C1109.141846,274.791473 1109.150269,301.617523 1109.167236,328.443481 
	C1109.167969,329.558136 1108.943237,330.672913 1108.922119,330.868652 
	C1106.731201,334.182983 1099.962891,328.449310 1102.121460,336.547821 
M1312.300171,311.326050 
	C1312.633057,319.313324 1312.901611,327.304352 1313.365845,335.284027 
	C1313.437744,336.522491 1314.403198,337.708984 1314.955444,338.919464 
	C1316.038208,338.107300 1317.557739,337.524384 1318.125854,336.442047 
	C1320.253662,332.388733 1323.216675,331.504913 1327.640259,332.341278 
	C1339.726074,334.626312 1351.839966,336.918121 1364.040894,338.398926 
	C1379.742065,340.304535 1395.127319,338.698853 1408.689819,329.706696 
	C1429.618652,315.830444 1435.262207,295.320679 1432.420166,271.685211 
	C1430.228027,253.454605 1419.481689,241.476440 1403.151978,234.210556 
	C1397.549561,231.717682 1391.620239,229.949936 1385.813843,227.926636 
	C1373.753418,223.724014 1361.490967,220.028839 1349.662231,215.256317 
	C1340.006348,211.360535 1335.512085,203.568253 1336.707397,192.885025 
	C1337.885010,182.359421 1344.022095,175.960739 1353.739990,172.930145 
	C1369.330688,168.068008 1383.508545,171.249725 1394.366089,183.323868 
	C1402.763672,192.662567 1409.583618,203.428452 1416.989136,213.643738 
	C1418.472168,215.689270 1419.414917,218.150299 1422.002930,216.772934 
	C1422.002930,208.384491 1422.125977,200.408325 1421.968384,192.437698 
	C1421.810059,184.433640 1421.372192,176.435120 1421.056763,168.434174 
	C1420.673828,168.082642 1420.290771,167.731125 1419.907837,167.379593 
	C1414.001587,176.813507 1406.625244,171.710938 1399.587646,170.654312 
	C1388.443115,168.981064 1377.270508,166.240387 1366.103271,166.208252 
	C1332.329834,166.111038 1310.133545,190.304337 1312.109863,224.049469 
	C1313.052124,240.138718 1319.245483,253.775055 1333.874390,261.627563 
	C1343.309326,266.692108 1353.678467,270.031036 1363.671753,274.036621 
	C1374.285156,278.290741 1385.264648,281.774200 1395.501221,286.785156 
	C1405.521240,291.689972 1408.226685,301.102356 1407.115112,311.764435 
	C1406.080200,321.690063 1400.141602,327.682251 1391.287231,331.109650 
	C1376.420044,336.864532 1362.690308,333.668060 1350.253418,324.682220 
	C1335.961182,314.355988 1325.524292,300.572601 1317.127930,285.206055 
	C1315.812256,282.797852 1314.628174,280.855499 1312.260132,282.041046 
	C1312.260132,291.777985 1312.260132,301.070648 1312.300171,311.326050 
M1172.993774,276.571899 
	C1173.334473,282.380280 1173.287231,288.242493 1174.084229,293.987549 
	C1177.164307,316.193024 1190.963013,331.475891 1212.624756,336.635986 
	C1226.430176,339.924622 1240.398926,339.973053 1254.225464,336.828094 
	C1274.432251,332.231812 1287.331787,319.946411 1292.166748,299.561523 
	C1295.407715,285.896729 1295.655029,272.138519 1292.686523,258.462738 
	C1288.617920,239.718262 1277.541138,226.916794 1258.529053,222.840149 
	C1248.718628,220.736603 1238.384888,219.896072 1228.348267,220.242584 
	C1194.952393,221.395508 1174.036011,242.704697 1172.993774,276.571899 
M850.739868,231.195511 
	C839.780701,239.313919 832.808350,250.112686 831.081543,263.570099 
	C829.906982,272.723724 829.509888,282.147614 830.217712,291.338776 
	C831.997620,314.449280 846.500366,331.088623 868.863586,336.598267 
	C880.794922,339.537750 892.903198,339.545441 905.059204,337.963287 
	C928.062256,334.969360 943.983093,320.915344 948.846008,298.872314 
	C951.860107,285.209839 952.015503,271.451935 948.957642,257.763275 
	C945.132751,240.641068 935.135620,228.862228 918.209778,223.560471 
	C913.479004,222.078674 908.521606,220.970734 903.593323,220.532135 
	C885.227722,218.897736 867.297058,219.958511 850.739868,231.195511 
M1588.465210,228.962875 
	C1585.634033,232.825851 1582.802856,236.688828 1579.312988,241.450577 
	C1579.312988,234.482819 1579.312988,228.539459 1579.312988,222.385437 
	C1559.907837,222.385437 1540.994751,222.385437 1521.995117,222.385437 
	C1520.800049,225.491211 1521.647827,226.870270 1524.945679,226.754547 
	C1528.056396,226.645386 1531.173950,226.731125 1534.429932,226.731125 
	C1534.429932,262.164642 1534.429932,297.007446 1534.429932,332.154327 
	C1530.884155,332.154327 1527.715942,331.975647 1524.587646,332.251190 
	C1523.491699,332.347717 1522.494263,333.561310 1521.451782,334.264832 
	C1522.437622,335.062469 1523.419434,336.550812 1524.409790,336.556488 
	C1547.391602,336.688141 1570.374390,336.650818 1593.356934,336.667847 
	C1597.070923,336.670593 1596.968018,334.844757 1595.594116,331.847290 
	C1590.302979,331.847290 1585.039673,331.847290 1580.004028,331.847290 
	C1580.004028,307.254730 1579.691406,283.118500 1580.171875,258.998077 
	C1580.342529,250.429337 1583.991699,242.513687 1589.497803,235.734863 
	C1592.649658,231.854568 1596.510132,229.043518 1601.776245,229.043930 
	C1605.361694,229.044220 1608.581665,229.868301 1608.812378,234.318695 
	C1609.055054,238.999100 1606.945923,241.314529 1602.128540,241.065308 
	C1598.649048,240.885284 1597.526245,242.385483 1597.000610,245.467728 
	C1595.365356,255.057755 1597.948242,262.127411 1604.692627,265.880829 
	C1612.192505,270.054749 1624.923096,269.027740 1630.493652,263.298615 
	C1637.567261,256.023834 1637.992676,246.923172 1636.233276,237.605087 
	C1634.586914,228.886414 1628.942627,223.414032 1620.622803,221.160278 
	C1608.914917,217.988770 1598.213257,220.340714 1588.465210,228.962875 
M1494.442139,222.153305 
	C1479.779907,222.153290 1465.116333,222.057205 1450.457031,222.265747 
	C1448.455200,222.294220 1444.647217,220.197098 1444.503418,224.328522 
	C1444.353516,228.634903 1448.209473,226.318802 1450.247559,226.636490 
	C1452.793213,227.033325 1455.447632,226.731827 1458.226562,226.731827 
	C1458.226562,262.160980 1458.226562,296.884705 1458.226562,332.154694 
	C1454.797119,332.154694 1451.656250,331.977692 1448.554443,332.248260 
	C1447.429443,332.346466 1446.397827,333.514313 1445.323486,334.194031 
	C1446.426025,335.016449 1447.523804,336.549042 1448.631714,336.556213 
	C1470.290894,336.697266 1491.951172,336.642120 1513.611328,336.678772 
	C1517.194458,336.684814 1517.376343,335.052734 1516.018677,331.981567 
	C1511.861694,331.981567 1507.762329,331.981567 1503.014648,331.981567 
	C1503.014648,295.190216 1503.014648,258.833191 1503.014648,222.153412 
	C1500.043701,222.153412 1497.731812,222.153412 1494.442139,222.153305 
M1501.058228,197.488953 
	C1506.579102,189.127502 1507.148315,180.184433 1502.763306,171.434738 
	C1498.507935,162.943726 1490.223389,161.235474 1481.544189,161.035217 
	C1480.048584,161.000702 1478.541138,161.011917 1477.053711,161.153687 
	C1467.445679,162.069427 1460.568481,167.385422 1458.150146,175.709457 
	C1455.385864,185.224289 1458.258057,195.979279 1464.785645,201.359299 
	C1472.379883,207.618408 1493.860718,207.761734 1501.058228,197.488953 
z"/>
<path fill="#FC53E0" opacity="1.000000" stroke="none" 
	d="
M566.021973,244.020752 
	C567.032410,309.105103 543.835083,363.601929 496.710083,407.524231 
	C465.066132,437.017548 427.390717,454.805878 384.475555,461.148193 
	C334.554932,468.525757 287.523529,459.835419 244.272507,433.939850 
	C188.132233,400.327118 153.052307,351.018341 142.343491,286.421875 
	C129.743820,210.419785 152.552597,145.119446 208.635361,92.340767 
	C241.703644,61.220703 281.614349,43.288807 326.844849,38.016502 
	C386.349548,31.080315 439.894409,46.312042 486.522736,83.715874 
	C527.989929,116.979599 553.459473,160.344574 562.848938,212.793381 
	C564.658569,222.901978 564.996094,233.274109 566.021973,244.020752 
M460.729401,84.749107 
	C415.320892,55.369675 365.825470,46.189018 313.063354,56.578259 
	C268.613464,65.330750 231.379059,87.446167 202.179214,122.202995 
	C163.707413,167.996277 148.443573,221.071518 157.482407,279.971283 
	C166.619324,339.510162 197.683365,385.817902 248.809937,417.895294 
	C291.063934,444.405884 337.411530,452.806427 386.354553,444.536621 
	C433.595337,436.554474 473.065582,413.826569 503.686005,376.902832 
	C543.352295,329.071228 557.694092,273.972076 546.409058,213.005753 
	C536.338135,158.599030 507.019470,116.228073 460.729401,84.749107 
z"/>
<path fill="#F310E7" opacity="1.000000" stroke="none" 
	d="
M711.136230,296.000000 
	C711.136292,308.128479 711.136292,319.756989 711.136292,331.812531 
	C715.802490,331.812531 720.067139,331.812531 724.443420,331.812531 
	C725.579590,335.092712 725.344727,336.725006 721.540710,336.709625 
	C698.879272,336.617889 676.217163,336.625732 653.555603,336.705475 
	C650.136475,336.717499 649.571594,335.281311 650.625793,332.091248 
	C654.882080,332.091248 659.166199,332.091248 663.851929,332.091248 
	C663.851929,279.030090 663.851929,226.340240 663.851929,173.104584 
	C659.437256,173.104584 655.019226,173.104584 650.680176,173.104584 
	C649.592712,169.776566 650.071716,168.282990 653.529114,168.295074 
	C676.190674,168.374237 698.852783,168.380478 721.514221,168.286346 
	C724.827209,168.272583 725.677979,169.534698 724.666016,172.876556 
	C720.507690,172.876556 716.223938,172.876556 711.539185,172.876556 
	C711.539185,197.654022 711.539185,222.041580 711.539185,246.882782 
	C727.129150,246.882782 742.802124,246.882782 758.735779,246.882782 
	C758.735779,222.392441 758.735779,197.984009 758.735779,173.201843 
	C754.282227,173.201843 750.005981,173.201843 745.534851,173.201843 
	C744.444275,170.083466 744.459717,168.292389 748.333862,168.303680 
	C771.162048,168.370270 793.990967,168.290573 816.818115,168.461060 
	C818.110168,168.470688 819.389038,170.258789 820.674011,171.219162 
	C820.390930,171.776016 820.107910,172.332855 819.824829,172.889709 
	C815.410034,172.889709 810.995178,172.889709 806.247070,172.889709 
	C806.247070,226.091522 806.247070,278.790192 806.247070,331.847412 
	C810.660400,331.847412 814.939148,331.847412 819.310486,331.847412 
	C820.554626,335.025146 820.402344,336.715179 816.546814,336.701843 
	C793.885254,336.623535 771.223145,336.619080 748.561768,336.715363 
	C745.333191,336.729065 744.265137,335.620209 745.299072,332.097656 
	C749.550781,332.097656 753.977417,332.097656 758.694092,332.097656 
	C758.694092,305.898682 758.694092,280.172211 758.694092,254.146957 
	C742.988770,254.146957 727.410217,254.146957 711.136230,254.146957 
	C711.136230,267.966309 711.136230,281.733154 711.136230,296.000000 
z"/>
<path fill="#F310E7" opacity="1.000000" stroke="none" 
	d="
M1101.735840,336.336823 
	C1099.962891,328.449310 1106.731201,334.182983 1108.922119,330.868652 
	C1108.943237,330.672913 1109.167969,329.558136 1109.167236,328.443481 
	C1109.150269,301.617523 1109.141846,274.791473 1109.030640,247.965805 
	C1109.016968,244.653687 1108.622925,241.311996 1108.072876,238.039856 
	C1106.986572,231.578522 1102.247559,229.381378 1096.877563,233.224319 
	C1094.142700,235.181396 1091.364380,238.010208 1090.214233,241.052979 
	C1087.891968,247.196594 1085.387207,253.722351 1085.221313,260.148987 
	C1084.619141,283.460754 1084.951538,306.796753 1084.947144,330.123627 
	C1084.947021,330.596130 1085.134644,331.068695 1085.311768,331.905975 
	C1087.729858,332.038452 1090.163574,332.171753 1092.842529,332.318512 
	C1094.007812,334.876495 1094.038452,336.674286 1090.358154,336.670502 
	C1071.863037,336.651459 1053.367920,336.642914 1034.872803,336.679443 
	C1031.548096,336.686005 1031.461426,335.010773 1032.388306,332.341797 
	C1034.752197,332.223358 1037.052368,332.108124 1039.713989,331.974762 
	C1039.836548,330.677887 1040.062256,329.403778 1040.061890,328.129730 
	C1040.056030,301.636871 1040.063110,275.143860 1039.953125,248.651321 
	C1039.937988,245.005615 1039.523804,241.328049 1038.928345,237.725739 
	C1037.927124,231.669235 1033.442017,229.567169 1028.395142,233.048309 
	C1025.885132,234.779587 1023.269653,237.255585 1022.190430,239.983566 
	C1019.649414,246.406281 1016.485168,253.133423 1016.268005,259.824890 
	C1015.506470,283.294250 1015.881836,306.800598 1015.846802,330.292938 
	C1015.846130,330.752380 1016.104614,331.212219 1016.317200,331.922852 
	C1018.756226,332.056824 1021.192871,332.190674 1023.668823,332.326691 
	C1025.002930,335.313843 1024.427856,336.710449 1020.946594,336.698242 
	C1001.118713,336.628601 981.290344,336.629822 961.462463,336.698914 
	C958.301331,336.709930 957.107727,335.713104 958.502563,332.252808 
	C962.377136,332.252808 966.332153,332.252808 970.639404,332.252808 
	C970.639404,297.015411 970.639404,262.139923 970.639404,226.837738 
	C966.575073,226.837738 962.638672,226.837738 958.702209,226.837738 
	C958.305908,226.403259 957.909668,225.968796 957.513367,225.534317 
	C958.531189,224.409042 959.538452,222.313919 960.568481,222.302597 
	C978.710632,222.103409 996.855530,222.158478 1015.623657,222.158478 
	C1015.623657,228.461792 1015.623657,234.486725 1015.623657,240.511642 
	C1024.550415,222.909363 1039.407227,218.216293 1057.209717,220.298843 
	C1071.464355,221.966370 1079.661743,230.893478 1083.232666,244.819321 
	C1083.692749,244.084747 1083.986694,243.752548 1084.131592,243.364670 
	C1093.118896,219.290771 1115.717163,216.637329 1133.469238,222.204697 
	C1143.518433,225.356277 1149.448242,232.966568 1151.798584,242.955307 
	C1153.194824,248.889282 1153.835815,255.119034 1153.904541,261.226074 
	C1154.148315,282.884308 1154.000122,304.546997 1154.000366,326.207977 
	C1154.000366,328.002533 1154.000244,329.797058 1154.000244,332.008911 
	C1158.529175,332.008911 1162.626465,332.008911 1166.744263,332.008911 
	C1168.294189,335.770142 1166.951172,336.721741 1163.598999,336.702881 
	C1143.106934,336.587463 1122.614014,336.586761 1101.735840,336.336823 
z"/>
<path fill="#F30FE7" opacity="1.000000" stroke="none" 
	d="
M1312.280151,310.844666 
	C1312.260132,301.070648 1312.260132,291.777985 1312.260132,282.041046 
	C1314.628174,280.855499 1315.812256,282.797852 1317.127930,285.206055 
	C1325.524292,300.572601 1335.961182,314.355988 1350.253418,324.682220 
	C1362.690308,333.668060 1376.420044,336.864532 1391.287231,331.109650 
	C1400.141602,327.682251 1406.080200,321.690063 1407.115112,311.764435 
	C1408.226685,301.102356 1405.521240,291.689972 1395.501221,286.785156 
	C1385.264648,281.774200 1374.285156,278.290741 1363.671753,274.036621 
	C1353.678467,270.031036 1343.309326,266.692108 1333.874390,261.627563 
	C1319.245483,253.775055 1313.052124,240.138718 1312.109863,224.049469 
	C1310.133545,190.304337 1332.329834,166.111038 1366.103271,166.208252 
	C1377.270508,166.240387 1388.443115,168.981064 1399.587646,170.654312 
	C1406.625244,171.710938 1414.001587,176.813507 1419.907837,167.379593 
	C1420.290771,167.731125 1420.673828,168.082642 1421.056763,168.434174 
	C1421.372192,176.435120 1421.810059,184.433640 1421.968384,192.437698 
	C1422.125977,200.408325 1422.002930,208.384491 1422.002930,216.772934 
	C1419.414917,218.150299 1418.472168,215.689270 1416.989136,213.643738 
	C1409.583618,203.428452 1402.763672,192.662567 1394.366089,183.323868 
	C1383.508545,171.249725 1369.330688,168.068008 1353.739990,172.930145 
	C1344.022095,175.960739 1337.885010,182.359421 1336.707397,192.885025 
	C1335.512085,203.568253 1340.006348,211.360535 1349.662231,215.256317 
	C1361.490967,220.028839 1373.753418,223.724014 1385.813843,227.926636 
	C1391.620239,229.949936 1397.549561,231.717682 1403.151978,234.210556 
	C1419.481689,241.476440 1430.228027,253.454605 1432.420166,271.685211 
	C1435.262207,295.320679 1429.618652,315.830444 1408.689819,329.706696 
	C1395.127319,338.698853 1379.742065,340.304535 1364.040894,338.398926 
	C1351.839966,336.918121 1339.726074,334.626312 1327.640259,332.341278 
	C1323.216675,331.504913 1320.253662,332.388733 1318.125854,336.442047 
	C1317.557739,337.524384 1316.038208,338.107300 1314.955444,338.919495 
	C1314.403198,337.708984 1313.437744,336.522491 1313.365845,335.284027 
	C1312.901611,327.304352 1312.633057,319.313324 1312.280151,310.844666 
z"/>
<path fill="#F30EE7" opacity="1.000000" stroke="none" 
	d="
M1172.996826,276.087341 
	C1174.036011,242.704697 1194.952393,221.395508 1228.348267,220.242584 
	C1238.384888,219.896072 1248.718628,220.736603 1258.529053,222.840149 
	C1277.541138,226.916794 1288.617920,239.718262 1292.686523,258.462738 
	C1295.655029,272.138519 1295.407715,285.896729 1292.166748,299.561523 
	C1287.331787,319.946411 1274.432251,332.231812 1254.225464,336.828094 
	C1240.398926,339.973053 1226.430176,339.924622 1212.624756,336.635986 
	C1190.963013,331.475891 1177.164307,316.193024 1174.084229,293.987549 
	C1173.287231,288.242493 1173.334473,282.380280 1172.996826,276.087341 
M1219.699829,312.802582 
	C1220.895752,317.776703 1221.638062,322.918823 1223.402710,327.682220 
	C1225.583618,333.569153 1230.594360,335.681183 1236.785034,334.258972 
	C1242.552002,332.934113 1246.666138,328.421082 1246.874512,320.426819 
	C1247.515991,295.820465 1247.675659,271.197357 1247.644043,246.581192 
	C1247.637817,241.688446 1246.469360,236.626801 1244.919678,231.946701 
	C1242.644775,225.076294 1235.683105,222.312485 1229.132324,225.184860 
	C1223.359863,227.715973 1221.252319,233.056229 1221.082642,238.611359 
	C1220.336426,263.035400 1220.031738,287.472931 1219.699829,312.802582 
z"/>
<path fill="#F30EE7" opacity="1.000000" stroke="none" 
	d="
M851.045898,231.010010 
	C867.297058,219.958511 885.227722,218.897736 903.593323,220.532135 
	C908.521606,220.970734 913.479004,222.078674 918.209778,223.560471 
	C935.135620,228.862228 945.132751,240.641068 948.957642,257.763275 
	C952.015503,271.451935 951.860107,285.209839 948.846008,298.872314 
	C943.983093,320.915344 928.062256,334.969360 905.059204,337.963287 
	C892.903198,339.545441 880.794922,339.537750 868.863586,336.598267 
	C846.500366,331.088623 831.997620,314.449280 830.217712,291.338776 
	C829.509888,282.147614 829.906982,272.723724 831.081543,263.570099 
	C832.808350,250.112686 839.780701,239.313919 851.045898,231.010010 
M876.310486,316.859650 
	C877.403809,320.342377 878.449219,323.841003 879.601807,327.304016 
	C881.308960,332.433655 885.218140,334.614929 890.321716,334.649536 
	C895.428162,334.684204 899.484131,332.417877 901.331360,327.541473 
	C902.610474,324.164917 903.772034,320.511353 903.858948,316.954010 
	C904.359253,296.479248 904.780945,275.994751 904.662964,255.516846 
	C904.621094,248.257751 903.401855,240.924026 901.957703,233.778458 
	C900.647034,227.293015 896.492798,224.208862 890.895813,224.145187 
	C884.921448,224.077225 880.819092,227.078934 878.764160,233.334854 
	C877.939636,235.844910 877.112061,238.498596 877.071655,241.099106 
	C876.683655,266.056671 876.463745,291.016846 876.310486,316.859650 
z"/>
<path fill="#F30FE7" opacity="1.000000" stroke="none" 
	d="
M1588.720703,228.711609 
	C1598.213257,220.340714 1608.914917,217.988770 1620.622803,221.160278 
	C1628.942627,223.414032 1634.586914,228.886414 1636.233276,237.605087 
	C1637.992676,246.923172 1637.567261,256.023834 1630.493652,263.298615 
	C1624.923096,269.027740 1612.192505,270.054749 1604.692627,265.880829 
	C1597.948242,262.127411 1595.365356,255.057755 1597.000610,245.467728 
	C1597.526245,242.385483 1598.649048,240.885284 1602.128540,241.065308 
	C1606.945923,241.314529 1609.055054,238.999100 1608.812378,234.318695 
	C1608.581665,229.868301 1605.361694,229.044220 1601.776245,229.043930 
	C1596.510132,229.043518 1592.649658,231.854568 1589.497803,235.734863 
	C1583.991699,242.513687 1580.342529,250.429337 1580.171875,258.998077 
	C1579.691406,283.118500 1580.004028,307.254730 1580.004028,331.847290 
	C1585.039673,331.847290 1590.302979,331.847290 1595.594116,331.847290 
	C1596.968018,334.844757 1597.070923,336.670593 1593.356934,336.667847 
	C1570.374390,336.650818 1547.391602,336.688141 1524.409790,336.556488 
	C1523.419434,336.550812 1522.437622,335.062469 1521.451782,334.264832 
	C1522.494263,333.561310 1523.491699,332.347717 1524.587646,332.251190 
	C1527.715942,331.975647 1530.884155,332.154327 1534.429932,332.154327 
	C1534.429932,297.007446 1534.429932,262.164642 1534.429932,226.731125 
	C1531.173950,226.731125 1528.056396,226.645386 1524.945679,226.754547 
	C1521.647827,226.870270 1520.800049,225.491211 1521.995117,222.385437 
	C1540.994751,222.385437 1559.907837,222.385437 1579.312988,222.385437 
	C1579.312988,228.539459 1579.312988,234.482819 1579.312988,241.450577 
	C1582.802856,236.688828 1585.634033,232.825851 1588.720703,228.711609 
z"/>
<path fill="#F30FE7" opacity="1.000000" stroke="none" 
	d="
M1494.931030,222.153351 
	C1497.731812,222.153412 1500.043701,222.153412 1503.014648,222.153412 
	C1503.014648,258.833191 1503.014648,295.190216 1503.014648,331.981567 
	C1507.762329,331.981567 1511.861694,331.981567 1516.018677,331.981567 
	C1517.376343,335.052734 1517.194458,336.684814 1513.611328,336.678772 
	C1491.951172,336.642120 1470.290894,336.697266 1448.631714,336.556213 
	C1447.523804,336.549042 1446.426025,335.016449 1445.323486,334.194061 
	C1446.397827,333.514313 1447.429443,332.346466 1448.554443,332.248260 
	C1451.656250,331.977692 1454.797119,332.154694 1458.226562,332.154694 
	C1458.226562,296.884705 1458.226562,262.160980 1458.226562,226.731827 
	C1455.447632,226.731827 1452.793213,227.033325 1450.247559,226.636490 
	C1448.209473,226.318802 1444.353516,228.634903 1444.503418,224.328522 
	C1444.647217,220.197098 1448.455200,222.294220 1450.457031,222.265747 
	C1465.116333,222.057205 1479.779907,222.153290 1494.931030,222.153351 
z"/>
<path fill="#F30EE7" opacity="1.000000" stroke="none" 
	d="
M1500.837158,197.776749 
	C1493.860718,207.761734 1472.379883,207.618408 1464.785645,201.359299 
	C1458.258057,195.979279 1455.385864,185.224289 1458.150146,175.709457 
	C1460.568481,167.385422 1467.445679,162.069427 1477.053711,161.153687 
	C1478.541138,161.011917 1480.048584,161.000702 1481.544189,161.035217 
	C1490.223389,161.235474 1498.507935,162.943726 1502.763306,171.434738 
	C1507.148315,180.184433 1506.579102,189.127502 1500.837158,197.776749 
z"/>
<path fill="#FFFEFF" opacity="1.000000" stroke="none" 
	d="
M461.041962,84.928223 
	C507.019470,116.228073 536.338135,158.599030 546.409058,213.005753 
	C557.694092,273.972076 543.352295,329.071228 503.686005,376.902832 
	C473.065582,413.826569 433.595337,436.554474 386.354553,444.536621 
	C337.411530,452.806427 291.063934,444.405884 248.809937,417.895294 
	C197.683365,385.817902 166.619324,339.510162 157.482407,279.971283 
	C148.443573,221.071518 163.707413,167.996277 202.179214,122.202995 
	C231.379059,87.446167 268.613464,65.330750 313.063354,56.578259 
	C365.825470,46.189018 415.320892,55.369675 461.041962,84.928223 
M402.500000,368.061493 
	C413.163239,368.061371 423.826508,368.071320 434.489746,368.058228 
	C444.964050,368.045410 449.051025,364.024139 449.055817,353.670837 
	C449.069733,323.682709 449.061218,293.694550 449.061493,263.706421 
	C449.061523,261.989899 449.061493,260.273346 449.061493,257.906219 
	C451.445038,259.711487 452.926147,261.050110 454.602905,262.065735 
	C461.930756,266.504303 471.332672,262.316437 472.804688,253.956375 
	C473.646667,249.174652 471.236206,245.719086 468.022339,242.510239 
	C433.124939,207.667419 398.268890,172.783188 363.393951,137.917892 
	C355.226715,129.752899 349.905884,129.739182 341.803802,137.839493 
	C307.283325,172.352417 272.766357,206.868896 238.256500,241.392487 
	C236.963135,242.686356 235.597046,243.952820 234.539215,245.428696 
	C230.813782,250.626297 231.456650,256.465057 236.085999,260.721558 
	C240.818481,265.072876 246.956375,265.111023 251.832794,260.841614 
	C252.858429,259.943634 253.943802,259.113892 255.758698,257.636383 
	C255.758698,260.487885 255.758698,262.277985 255.758698,264.068115 
	C255.758743,293.389832 255.756470,322.711578 255.759933,352.033295 
	C255.761459,364.936005 258.842438,368.060516 271.551422,368.060944 
	C314.867615,368.062378 358.183807,368.061554 402.500000,368.061493 
z"/>
<path fill="#FFFCFF" opacity="1.000000" stroke="none" 
	d="
M1219.633423,312.354065 
	C1220.031738,287.472931 1220.336426,263.035400 1221.082642,238.611359 
	C1221.252319,233.056229 1223.359863,227.715973 1229.132324,225.184860 
	C1235.683105,222.312485 1242.644775,225.076294 1244.919678,231.946701 
	C1246.469360,236.626801 1247.637817,241.688446 1247.644043,246.581192 
	C1247.675659,271.197357 1247.515991,295.820465 1246.874512,320.426819 
	C1246.666138,328.421082 1242.552002,332.934113 1236.785034,334.258972 
	C1230.594360,335.681183 1225.583618,333.569153 1223.402710,327.682220 
	C1221.638062,322.918823 1220.895752,317.776703 1219.633423,312.354065 
z"/>
<path fill="#FFFCFF" opacity="1.000000" stroke="none" 
	d="
M876.253052,316.417969 
	C876.463745,291.016846 876.683655,266.056671 877.071655,241.099106 
	C877.112061,238.498596 877.939636,235.844910 878.764160,233.334854 
	C880.819092,227.078934 884.921448,224.077225 890.895813,224.145187 
	C896.492798,224.208862 900.647034,227.293015 901.957703,233.778458 
	C903.401855,240.924026 904.621094,248.257751 904.662964,255.516846 
	C904.780945,275.994751 904.359253,296.479248 903.858948,316.954010 
	C903.772034,320.511353 902.610474,324.164917 901.331360,327.541473 
	C899.484131,332.417877 895.428162,334.684204 890.321716,334.649536 
	C885.218140,334.614929 881.308960,332.433655 879.601807,327.304016 
	C878.449219,323.841003 877.403809,320.342377 876.253052,316.417969 
z"/>
<path fill="#FC51E0" opacity="1.000000" stroke="none" 
	d="
M402.000000,368.061523 
	C358.183807,368.061554 314.867615,368.062378 271.551422,368.060944 
	C258.842438,368.060516 255.761459,364.936005 255.759933,352.033295 
	C255.756470,322.711578 255.758743,293.389832 255.758698,264.068115 
	C255.758698,262.277985 255.758698,260.487885 255.758698,257.636383 
	C253.943802,259.113892 252.858429,259.943634 251.832794,260.841614 
	C246.956375,265.111023 240.818481,265.072876 236.085999,260.721558 
	C231.456650,256.465057 230.813782,250.626297 234.539215,245.428696 
	C235.597046,243.952820 236.963135,242.686356 238.256500,241.392487 
	C272.766357,206.868896 307.283325,172.352417 341.803802,137.839493 
	C349.905884,129.739182 355.226715,129.752899 363.393951,137.917892 
	C398.268890,172.783188 433.124939,207.667419 468.022339,242.510239 
	C471.236206,245.719086 473.646667,249.174652 472.804688,253.956375 
	C471.332672,262.316437 461.930756,266.504303 454.602905,262.065735 
	C452.926147,261.050110 451.445038,259.711487 449.061493,257.906219 
	C449.061493,260.273346 449.061523,261.989899 449.061493,263.706421 
	C449.061218,293.694550 449.069733,323.682709 449.055817,353.670837 
	C449.051025,364.024139 444.964050,368.045410 434.489746,368.058228 
	C423.826508,368.071320 413.163239,368.061371 402.000000,368.061523 
M279.078674,263.500000 
	C279.078735,288.652008 279.153717,313.804413 279.007538,338.955566 
	C278.982208,343.311249 280.506500,344.811096 284.820404,344.801971 
	C329.960632,344.706329 375.101196,344.713654 420.241486,344.797791 
	C423.915527,344.804626 425.095520,343.608734 425.081909,339.879425 
	C424.956604,305.566498 425.049652,271.252747 424.903137,236.939957 
	C424.894348,234.886627 423.914368,232.311081 422.486816,230.868927 
	C400.222778,208.376724 377.772644,186.068802 355.482269,163.602463 
	C352.846893,160.946259 351.249420,161.002930 348.634125,163.640030 
	C326.466034,185.992935 304.122589,208.172165 281.999054,230.568756 
	C280.360901,232.227142 279.305054,235.140305 279.209137,237.519760 
	C278.873993,245.834747 279.078979,254.171509 279.078674,263.500000 
z"/>
<path fill="#FFFDFF" opacity="1.000000" stroke="none" 
	d="
M279.078735,263.000000 
	C279.078979,254.171509 278.873993,245.834747 279.209137,237.519760 
	C279.305054,235.140305 280.360901,232.227142 281.999054,230.568756 
	C304.122589,208.172165 326.466034,185.992935 348.634125,163.640030 
	C351.249420,161.002930 352.846893,160.946259 355.482269,163.602463 
	C377.772644,186.068802 400.222778,208.376724 422.486816,230.868927 
	C423.914368,232.311081 424.894348,234.886627 424.903137,236.939957 
	C425.049652,271.252747 424.956604,305.566498 425.081909,339.879425 
	C425.095520,343.608734 423.915527,344.804626 420.241486,344.797791 
	C375.101196,344.713654 329.960632,344.706329 284.820404,344.801971 
	C280.506500,344.811096 278.982208,343.311249 279.007538,338.955566 
	C279.153717,313.804413 279.078735,288.652008 279.078735,263.000000 
M335.915466,277.500000 
	C335.916626,284.494171 335.864746,291.488892 335.932526,298.482422 
	C336.014343,306.922058 340.139465,311.183289 348.469025,311.228760 
	C363.622620,311.311462 378.777252,311.297821 393.931000,311.231598 
	C401.737366,311.197479 406.436432,307.364349 406.636902,299.595428 
	C407.040619,283.953033 407.016357,268.287506 406.663727,252.642883 
	C406.488892,244.884995 401.793823,240.905441 394.031982,240.866013 
	C378.711792,240.788177 363.390503,240.779800 348.070526,240.875778 
	C340.364594,240.924057 336.052795,245.291046 335.945190,253.019852 
	C335.836273,260.845184 335.917419,268.673157 335.915466,277.500000 
z"/>
<path fill="#FC51E0" opacity="1.000000" stroke="none" 
	d="
M335.915405,277.000000 
	C335.917419,268.673157 335.836273,260.845184 335.945190,253.019852 
	C336.052795,245.291046 340.364594,240.924057 348.070526,240.875778 
	C363.390503,240.779800 378.711792,240.788177 394.031982,240.866013 
	C401.793823,240.905441 406.488892,244.884995 406.663727,252.642883 
	C407.016357,268.287506 407.040619,283.953033 406.636902,299.595428 
	C406.436432,307.364349 401.737366,311.197479 393.931000,311.231598 
	C378.777252,311.297821 363.622620,311.311462 348.469025,311.228760 
	C340.139465,311.183289 336.014343,306.922058 335.932526,298.482422 
	C335.864746,291.488892 335.916626,284.494171 335.915405,277.000000 
M382.066742,264.336578 
	C374.632935,264.336578 367.199127,264.336578 359.539734,264.336578 
	C359.539734,272.314331 359.539734,279.874603 359.539734,287.632782 
	C367.423401,287.632782 374.981140,287.632782 382.726440,287.632782 
	C382.840820,286.535461 383.003448,285.733521 382.995422,284.933289 
	C382.928680,278.278076 382.830475,271.623138 382.066742,264.336578 
z"/>
<path fill="#FFF9FE" opacity="1.000000" stroke="none" 
	d="
M382.404236,264.652344 
	C382.830475,271.623138 382.928680,278.278076 382.995422,284.933289 
	C383.003448,285.733521 382.840820,286.535461 382.726440,287.632782 
	C374.981140,287.632782 367.423401,287.632782 359.539734,287.632782 
	C359.539734,279.874603 359.539734,272.314331 359.539734,264.336578 
	C367.199127,264.336578 374.632935,264.336578 382.404236,264.652344 
z"/>
</svg>