<?xml version="1.0" standalone="no"?>
<!DOCTYPE svg PUBLIC "-//W3C//DTD SVG 20010904//EN"
 "http://www.w3.org/TR/2001/REC-SVG-20010904/DTD/svg10.dtd">
<svg version="1.0" xmlns="http://www.w3.org/2000/svg"
 width="300.000000pt" height="87.000000pt" viewBox="0 0 300.000000 87.000000"
 preserveAspectRatio="xMidYMid meet">
<metadata>
Created by potrace 1.10, written by Peter Selinger 2001-2011
</metadata>
<g transform="translate(0.000000,87.000000) scale(0.100000,-0.100000)"
fill="#000000" stroke="none">
<path d="M500 652 c-27 -22 -38 -38 -32 -46 5 -6 8 -28 6 -48 -1 -24 4 -42 14
-50 12 -10 14 -10 8 0 -11 18 10 15 29 -4 9 -9 14 -23 11 -30 -3 -7 -1 -16 4
-19 6 -4 10 4 10 17 0 23 16 48 32 48 4 0 4 -8 1 -17 -6 -16 -5 -16 10 -4 12
10 15 24 12 57 -2 24 0 46 6 50 7 4 5 12 -4 22 -8 10 -17 26 -18 36 -6 31 -45
26 -89 -12z m80 4 c0 -5 8 -19 17 -30 10 -12 11 -15 3 -8 -8 6 -18 12 -23 12
-5 0 -5 -5 1 -12 15 -20 20 -97 5 -91 -6 3 -13 14 -15 26 -4 29 -40 29 -53 0
-18 -41 -30 -32 -30 21 0 42 4 55 25 72 24 21 70 28 70 10z m-22 -114 c3 -17
-2 -22 -17 -22 -14 0 -21 6 -21 18 0 38 33 41 38 4z"/>
<path d="M509 633 c-13 -15 -16 -21 -6 -14 15 12 17 11 17 -8 0 -16 6 -21 24
-21 20 0 24 5 22 23 -3 26 -14 47 -25 47 -4 0 -18 -12 -32 -27z"/>
<path d="M242 668 c-12 -6 -22 -18 -20 -27 1 -9 -11 -40 -26 -70 -19 -37 -24
-57 -17 -64 7 -7 15 -6 25 2 13 11 16 9 22 -13 6 -24 11 -26 59 -26 48 0 53 2
59 26 6 22 9 24 22 13 26 -21 38 4 20 39 -11 21 -13 33 -5 37 6 5 2 13 -11 22
-12 8 -23 13 -24 12 -2 -2 -7 -12 -13 -22 -8 -16 -11 -17 -22 -3 -11 13 -9 17
13 26 33 12 33 33 1 48 -31 14 -53 14 -83 0z m84 -13 c18 -14 17 -14 -9 -3
-22 9 -36 9 -60 0 -29 -10 -30 -10 -13 3 25 19 57 19 82 0z m-11 -14 c9 -16
-28 -31 -48 -20 -10 6 -15 14 -12 20 8 12 52 12 60 0z m-55 -62 c4 -24 8 -30
14 -21 6 11 15 7 37 -14 16 -15 29 -31 29 -36 0 -4 -25 -8 -56 -8 l-56 0 6 30
6 31 -25 -28 c-30 -34 -32 -20 -4 41 23 54 42 55 49 5z m46 6 c8 -19 19 -19
39 1 9 9 19 13 23 10 3 -4 0 -11 -7 -16 -12 -7 -11 -11 2 -25 10 -9 17 -23 17
-30 0 -19 -67 23 -75 47 -4 10 -12 15 -21 11 -7 -3 -14 0 -14 6 0 16 30 13 36
-4z"/>
<path d="M450 554 c0 -35 6 -54 25 -76 14 -16 25 -25 25 -20 0 5 -9 17 -21 28
-17 16 -20 27 -17 66 3 27 1 48 -3 48 -5 0 -9 -21 -9 -46z"/>
<path d="M616 592 c-3 -6 -2 -13 3 -16 16 -10 6 -65 -17 -89 -12 -13 -22 -27
-22 -32 0 -5 13 6 30 25 18 22 29 46 29 65 1 35 -13 63 -23 47z"/>
<path d="M850 430 c0 -81 3 -110 13 -110 8 0 11 15 8 51 l-3 50 53 -3 54 -3
-3 -47 c-3 -39 -1 -48 12 -48 14 0 16 16 16 110 0 95 -2 110 -16 110 -14 0
-16 -8 -10 -50 l7 -50 -56 0 -55 0 0 50 c0 28 -4 50 -10 50 -6 0 -10 -43 -10
-110z"/>
<path d="M1712 524 c-30 -21 -30 -69 1 -88 12 -8 36 -17 54 -21 43 -9 58 -28
43 -54 -7 -15 -21 -21 -43 -21 -37 0 -57 15 -57 42 0 10 -7 18 -15 18 -17 0
-19 -9 -6 -43 13 -33 67 -52 107 -37 35 14 44 26 44 62 0 20 -8 31 -30 43 -16
8 -35 15 -43 15 -26 0 -59 34 -52 53 15 39 95 28 95 -13 0 -11 7 -20 15 -20
24 0 17 37 -11 59 -32 25 -71 27 -102 5z"/>
<path d="M2070 430 c0 -91 3 -110 15 -110 12 0 15 19 15 110 0 91 -3 110 -15
110 -12 0 -15 -19 -15 -110z"/>
<path d="M2370 500 c0 -25 -4 -30 -25 -30 -14 0 -25 -4 -25 -10 0 -5 11 -10
25 -10 23 0 24 -4 27 -62 3 -63 3 -63 36 -66 18 -2 32 1 32 7 0 6 -11 11 -25
11 -24 0 -25 3 -25 55 0 52 1 55 25 55 14 0 25 5 25 10 0 6 -11 10 -25 10 -21
0 -25 5 -25 30 0 17 -4 30 -10 30 -5 0 -10 -13 -10 -30z"/>
<path d="M2477 523 c-8 -7 11 -33 24 -33 5 0 9 9 9 20 0 19 -20 27 -33 13z"/>
<path d="M1065 450 c-11 -12 -19 -36 -19 -57 0 -73 90 -108 137 -52 23 29 22
84 -3 109 -27 27 -90 27 -115 0z m93 -12 c7 -7 12 -26 12 -43 0 -38 -16 -55
-50 -55 -46 0 -65 44 -40 91 12 22 59 26 78 7z"/>
<path d="M1240 394 c0 -58 3 -74 15 -74 10 0 15 16 17 63 3 62 3 62 33 62 30
0 30 0 33 -62 2 -41 7 -63 15 -63 8 0 11 14 9 44 -5 55 12 88 41 84 20 -3 22
-10 25 -65 2 -47 7 -63 17 -63 19 0 21 120 3 138 -15 15 -60 16 -76 0 -8 -8
-15 -8 -25 0 -7 6 -34 11 -60 10 l-47 -1 0 -73z"/>
<path d="M1521 444 c-34 -43 -21 -102 26 -123 35 -16 49 -14 80 14 21 19 24
24 11 25 -9 0 -20 -4 -23 -10 -9 -14 -58 -13 -73 2 -27 27 -13 38 48 38 51 0
60 3 60 18 0 62 -89 87 -129 36z m99 -14 c10 -19 8 -20 -40 -20 -51 0 -60 6
-38 28 19 19 66 15 78 -8z"/>
<path d="M1897 452 c-24 -27 -22 -94 3 -117 30 -27 88 -25 111 4 25 31 24 86
-1 111 -26 26 -90 27 -113 2z m102 -33 c13 -24 13 -29 -2 -53 -33 -49 -97 -28
-97 33 0 53 72 67 99 20z"/>
<path d="M2150 406 c0 -39 5 -67 13 -73 24 -19 45 -21 72 -7 32 17 38 17 30 4
-3 -5 1 -10 9 -10 13 0 16 14 16 75 0 60 -3 75 -15 75 -11 0 -15 -13 -15 -53
0 -57 -12 -77 -45 -77 -33 0 -45 20 -45 77 0 29 -4 53 -10 53 -6 0 -10 -28
-10 -64z"/>
<path d="M2480 395 c0 -60 3 -75 15 -75 12 0 15 15 15 75 0 60 -3 75 -15 75
-12 0 -15 -15 -15 -75z"/>
<path d="M2570 448 c-42 -45 -16 -122 46 -134 68 -13 117 82 69 136 -25 28
-87 27 -115 -2z m100 -17 c25 -47 6 -91 -40 -91 -34 0 -50 17 -50 55 0 17 5
36 12 43 19 19 66 15 78 -7z"/>
<path d="M2750 395 c0 -58 3 -75 14 -75 11 0 13 10 9 40 -7 50 16 90 52 90 32
0 47 -36 39 -91 -5 -32 -4 -39 10 -39 25 0 23 111 -2 133 -22 20 -63 22 -81 5
-11 -10 -14 -10 -18 0 -12 33 -23 4 -23 -63z"/>
<path d="M331 408 c-1 -37 -26 -94 -49 -113 -7 -6 -10 -18 -7 -27 5 -13 26
-16 130 -16 68 -1 127 3 130 8 3 5 8 39 10 75 l4 65 -80 0 c-64 0 -79 -3 -72
-12 12 -16 23 -95 16 -114 -6 -16 -33 -19 -33 -4 0 6 8 10 17 10 12 0 14 3 6
11 -8 8 -17 5 -32 -10 -26 -26 -81 -29 -81 -5 0 12 7 15 28 10 15 -3 21 -3 14
0 -6 3 -9 11 -6 16 4 7 2 8 -4 4 -7 -4 -12 -1 -12 8 0 11 9 16 30 16 17 0 30
-4 30 -8 0 -5 7 -9 15 -9 12 0 10 8 -7 38 -12 23 -19 47 -16 63 3 14 1 26 -3
26 -5 0 -10 -15 -10 -32 l-2 -33 -7 35 -7 35 -2 -37z m176 -25 c-20 -2 -52 -2
-70 0 -17 2 0 4 38 4 39 0 53 -2 32 -4z m8 -44 c9 -17 15 -40 13 -52 -3 -19
-10 -22 -50 -25 -41 -3 -48 0 -48 15 0 10 -3 35 -6 56 l-7 37 41 0 c36 0 44
-4 57 -31z"/>
</g>
</svg>
