<svg version="1.1" id="Layer_1" xmlns="http://www.w3.org/2000/svg" xmlns:xlink="http://www.w3.org/1999/xlink" x="0px" y="0px"
	 width="100%" viewBox="0 0 1747 483" enable-background="new 0 0 1747 483" xml:space="preserve">
<path fill="#FFFFFF" opacity="1.000000" stroke="none" 
	d="
M1120.000000,484.000000 
	C746.708374,484.000000 373.916748,484.000000 1.062568,484.000000 
	C1.062568,323.059753 1.062568,162.119461 1.062568,1.089586 
	C583.333313,1.089586 1165.666626,1.089586 1747.964355,1.089586 
	C1747.964355,162.083557 1747.964355,323.041779 1747.964355,484.000000 
	C1538.785767,484.000000 1329.642944,484.000000 1120.000000,484.000000 
M536.774048,358.280762 
	C562.239014,314.490082 571.348755,267.345703 563.695129,217.452011 
	C555.373535,163.203842 529.492371,118.264076 486.742584,83.886292 
	C440.176422,46.439529 386.663910,31.135548 327.151917,37.987473 
	C281.914154,43.195930 241.984222,61.054001 208.880539,92.116989 
	C152.740265,144.796494 130.207901,209.963638 142.198303,286.072815 
	C150.430923,338.329437 176.023560,381.588959 216.961823,414.878815 
	C267.977905,456.363647 326.632507,471.765747 391.404053,459.864685 
	C454.698883,448.234894 502.683655,413.557343 536.774048,358.280762 
M758.992371,274.500183 
	C758.992371,293.585052 758.992371,312.669922 758.992371,332.072388 
	C753.988098,332.072388 749.698120,332.072388 744.953064,332.072388 
	C745.082642,333.758942 745.184509,335.084320 745.284912,336.391418 
	C770.391357,336.391418 794.996338,336.391418 819.736816,336.391418 
	C819.736816,334.870605 819.736816,333.627716 819.736816,331.878937 
	C815.083313,331.878937 810.661682,331.878937 806.310669,331.878937 
	C806.310669,278.672699 806.310669,225.974075 806.310669,172.931061 
	C810.997375,172.931061 815.285400,172.931061 820.000488,172.931061 
	C819.843079,171.209396 819.721375,169.878036 819.607117,168.628250 
	C794.499939,168.628250 769.896423,168.628250 745.188477,168.628250 
	C745.188477,170.166794 745.188477,171.410416 745.188477,173.173920 
	C749.860291,173.173920 754.276550,173.173920 758.684753,173.173920 
	C758.684753,198.112610 758.684753,222.527176 758.684753,247.015747 
	C742.800720,247.015747 727.226196,247.015747 711.426758,247.015747 
	C711.426758,222.300400 711.426758,197.904175 711.426758,172.930618 
	C716.100952,172.930618 720.495911,172.930618 724.671814,172.930618 
	C725.760803,169.199081 724.463074,168.273529 721.342102,168.286209 
	C698.847290,168.377625 676.351807,168.376556 653.856995,168.291458 
	C650.356567,168.278214 649.452148,169.544571 650.724976,173.208984 
	C655.162781,173.208984 659.574585,173.208984 663.980286,173.208984 
	C663.980286,226.342590 663.980286,278.928528 663.980286,332.038940 
	C659.295898,332.038940 654.873840,332.038940 650.601929,332.038940 
	C649.086060,336.841370 651.847534,336.689972 654.727539,336.685272 
	C676.889343,336.649109 699.051270,336.669739 721.213135,336.652008 
	C722.348755,336.651123 723.484253,336.459869 724.833069,336.337952 
	C724.833069,334.901550 724.833069,333.660492 724.833069,331.835754 
	C720.216125,331.835754 715.815063,331.835754 711.553528,331.835754 
	C711.553528,305.539948 711.553528,279.829926 711.553528,254.212173 
	C727.544006,254.212173 743.114319,254.212173 758.992371,254.212173 
	C758.992371,260.881500 758.992371,267.190948 758.992371,274.500183 
M1015.791077,292.500000 
	C1015.831177,282.171295 1015.138245,271.769440 1016.159668,261.538696 
	C1016.885132,254.272186 1019.527954,247.088531 1022.118958,240.168945 
	C1023.190674,237.306732 1026.005005,234.699280 1028.657959,232.913437 
	C1033.510986,229.646606 1037.897705,231.757797 1038.894409,237.522461 
	C1039.516235,241.118774 1039.935547,244.798859 1039.950806,248.443436 
	C1040.063232,275.099243 1040.054321,301.755554 1040.063599,328.411713 
	C1040.063965,329.532379 1039.866943,330.653076 1039.746704,331.936615 
	C1037.069092,332.095001 1034.637573,332.238800 1032.343994,332.374451 
	C1031.027954,336.086517 1032.708740,336.718384 1035.652954,336.699829 
	C1048.647461,336.617828 1061.642578,336.664978 1074.637573,336.664948 
	C1079.802246,336.664917 1084.974365,336.810974 1090.125977,336.551117 
	C1091.293823,336.492218 1092.390747,335.022522 1093.520264,334.202209 
	C1092.460449,333.518921 1091.476440,332.490875 1090.322266,332.237000 
	C1088.771118,331.895782 1087.088623,332.152374 1085.339111,332.152374 
	C1085.152588,331.108307 1084.942017,330.480225 1084.942383,329.852234 
	C1084.955811,306.361847 1084.640259,282.862335 1085.251953,259.387115 
	C1085.414795,253.136551 1087.921997,246.753616 1090.338379,240.833710 
	C1091.620117,237.693665 1094.611450,234.792618 1097.547241,232.887711 
	C1102.713379,229.535645 1106.991943,231.725296 1108.028442,237.770660 
	C1108.617188,241.203018 1109.016235,244.713806 1109.031372,248.191299 
	C1109.146973,274.846985 1109.152832,301.503143 1109.166138,328.159149 
	C1109.166748,329.425232 1108.917114,330.691437 1108.782104,331.976013 
	C1106.097900,332.107880 1103.799316,332.220795 1101.321777,332.342499 
	C1100.744629,334.887573 1100.475586,336.703888 1103.947998,336.693054 
	C1124.106567,336.630127 1144.265869,336.695160 1164.423828,336.564728 
	C1165.435913,336.558197 1166.438843,335.137695 1167.446045,334.375549 
	C1166.423706,333.634918 1165.448364,332.348846 1164.370117,332.255707 
	C1161.104126,331.973572 1157.798462,332.153656 1154.000122,332.153656 
	C1154.000122,329.890259 1154.000122,328.104065 1154.000122,326.317841 
	C1154.000122,304.826172 1154.062378,283.334167 1153.952148,261.843048 
	C1153.927368,257.033234 1153.673462,252.162842 1152.871216,247.431137 
	C1150.958008,236.145111 1145.881958,226.746429 1134.505981,222.618500 
	C1118.247681,216.719055 1093.825806,218.086472 1084.376831,242.786636 
	C1084.147095,243.387161 1083.833618,243.955597 1083.312378,245.063431 
	C1079.527710,230.371521 1070.822754,221.493149 1055.854126,220.139297 
	C1038.260498,218.548019 1023.944458,223.636505 1015.703918,241.102264 
	C1015.703918,234.923584 1015.703918,228.744919 1015.703918,222.409424 
	C996.187927,222.409424 977.269165,222.409424 958.034119,222.409424 
	C958.034119,223.621658 957.882812,225.388489 958.056274,225.420975 
	C962.252441,226.206650 966.483215,226.807220 970.698059,227.439728 
	C970.698059,262.269653 970.698059,297.011475 970.698059,331.715271 
	C958.138184,333.260559 958.138184,333.260559 958.388062,336.227234 
	C958.838013,336.354431 959.309509,336.603760 959.781433,336.604523 
	C980.273010,336.637817 1000.764587,336.637360 1021.256165,336.673401 
	C1025.109619,336.680176 1024.711426,334.754425 1023.615234,332.314819 
	C1020.949524,332.162079 1018.527100,332.023285 1015.790833,331.866486 
	C1015.790833,318.776611 1015.790833,306.138306 1015.791077,292.500000 
M1361.062134,220.593979 
	C1357.134155,218.795578 1353.168091,217.075455 1349.286011,215.183060 
	C1340.262329,210.784454 1335.738281,203.742462 1336.639893,193.492828 
	C1337.567505,182.948364 1343.483521,176.265411 1353.161865,173.106155 
	C1368.849121,167.985443 1383.253296,171.020309 1394.295532,183.256561 
	C1402.710571,192.581223 1409.531982,203.352356 1416.947876,213.563080 
	C1418.426880,215.599457 1419.319702,218.142822 1422.927612,216.315414 
	C1422.319214,200.441833 1421.706787,184.459610 1421.094360,168.477386 
	C1420.730835,168.112518 1420.367432,167.747665 1420.003906,167.382797 
	C1413.643921,177.061508 1406.025879,171.463409 1398.706177,170.378021 
	C1387.881470,168.772919 1377.020874,166.211548 1366.171875,166.193542 
	C1332.340698,166.137375 1310.168091,190.219360 1312.109009,223.998444 
	C1313.033569,240.090515 1319.211914,253.740021 1333.838379,261.605560 
	C1343.271118,266.678070 1353.641479,270.022461 1363.636963,274.028595 
	C1374.252441,278.283325 1385.236694,281.760223 1395.477539,286.767761 
	C1405.497437,291.667267 1408.223999,301.071045 1407.118164,311.740540 
	C1406.088989,321.669220 1400.160522,327.668945 1391.305054,331.102753 
	C1376.436646,336.868103 1362.703247,333.671967 1350.262573,324.688263 
	C1335.964844,314.363708 1325.526611,300.576569 1317.128418,285.207153 
	C1315.812622,282.798981 1314.628906,280.854980 1311.222778,282.560669 
	C1311.931396,300.433533 1312.621094,318.384155 1313.420288,336.329895 
	C1313.459839,337.216370 1314.453613,338.060364 1315.003052,338.924133 
	C1316.002441,338.244659 1317.465576,337.789673 1317.921753,336.847260 
	C1319.997314,332.559601 1323.064575,331.026031 1327.682983,332.408722 
	C1329.584717,332.978027 1331.599121,333.169891 1333.561279,333.538574 
	C1350.725342,336.763184 1367.786865,340.552979 1385.509521,338.151917 
	C1411.332153,334.653503 1429.666870,316.022247 1432.807495,289.549072 
	C1436.146973,261.401031 1423.994507,241.280243 1397.506714,231.981598 
	C1385.750977,227.854706 1373.705566,224.553207 1361.062134,220.593979 
M1221.405884,220.908279 
	C1198.532593,224.411285 1182.051392,235.860291 1175.512207,258.876740 
	C1171.860229,271.730652 1171.979614,284.875397 1174.850830,297.948822 
	C1179.410645,318.711761 1192.118530,331.658173 1212.685547,336.643402 
	C1226.480347,339.987183 1240.469482,339.962036 1254.290649,336.809052 
	C1274.498901,332.198944 1287.377075,319.871704 1292.187744,299.481110 
	C1295.412842,285.810974 1295.638916,272.052673 1292.669800,258.372223 
	C1288.545288,239.368057 1277.020386,227.159637 1258.004272,222.435501 
	C1246.230713,219.510574 1234.290894,219.184067 1221.405884,220.908279 
M853.867188,330.684357 
	C872.700684,340.471649 892.469482,340.960907 912.610474,336.202057 
	C932.190979,331.575653 944.000366,318.878479 948.647888,299.562653 
	C952.002747,285.619232 952.106445,271.498444 948.888855,257.494690 
	C944.720337,239.351898 933.736389,227.593216 915.556213,222.792343 
	C900.600098,218.842865 885.525452,218.719650 870.597107,222.319748 
	C851.799377,226.852966 838.078979,237.916000 832.733032,256.877899 
	C830.251221,265.681030 829.369446,275.262085 829.618958,284.440002 
	C830.129700,303.228485 836.330139,319.672852 853.867188,330.684357 
M1602.313354,264.262787 
	C1611.198975,270.098724 1624.163574,269.874390 1630.567749,263.213623 
	C1637.722046,255.772919 1638.097168,246.482834 1636.097534,237.010071 
	C1634.307983,228.531921 1628.577271,223.489914 1620.523804,221.084122 
	C1605.584595,216.621368 1589.573975,223.496155 1582.340942,237.285263 
	C1581.713867,238.480637 1581.013428,239.637497 1580.347168,240.812225 
	C1579.956055,240.715195 1579.564941,240.618179 1579.173828,240.521149 
	C1579.173828,234.474747 1579.173828,228.428345 1579.173828,222.154419 
	C1560.530762,222.154419 1542.555908,222.119095 1524.582275,222.244553 
	C1523.534424,222.251862 1522.495605,223.560455 1521.452637,224.263443 
	C1522.581421,225.085709 1523.647095,226.485718 1524.851318,226.617386 
	C1527.942505,226.955353 1531.095337,226.730270 1534.477783,226.730270 
	C1534.477783,262.089539 1534.477783,296.944366 1534.477783,332.154083 
	C1530.985962,332.154083 1527.824219,331.981354 1524.699707,332.245728 
	C1523.573364,332.341034 1522.535889,333.486206 1521.457886,334.152252 
	C1522.570557,334.988281 1523.678711,336.546753 1524.796509,336.553680 
	C1547.610474,336.695618 1570.425903,336.695648 1593.239746,336.550629 
	C1594.329346,336.543701 1595.408691,334.941101 1596.492798,334.081543 
	C1595.393799,333.438965 1594.318970,332.296692 1593.191406,332.241943 
	C1588.759277,332.026672 1584.310303,332.153778 1580.086426,332.153778 
	C1580.086426,307.013763 1579.730469,282.559174 1580.283081,258.125183 
	C1580.471924,249.776764 1584.233887,242.018814 1589.743408,235.449661 
	C1592.969482,231.602844 1596.880371,228.912079 1602.151733,229.044205 
	C1605.818970,229.136108 1609.035767,230.262878 1608.748657,234.686813 
	C1608.504150,238.455200 1607.541016,242.086731 1602.242065,241.195953 
	C1600.980469,240.983841 1599.629517,241.303131 1598.193970,241.385193 
	C1595.680542,249.575333 1595.095215,257.240173 1602.313354,264.262787 
M1448.133301,336.656036 
	C1469.627686,336.658051 1491.121948,336.643829 1512.616333,336.680267 
	C1515.701416,336.685486 1518.189575,336.466278 1515.874146,331.977905 
	C1511.857422,331.977905 1507.755981,331.977905 1503.008789,331.977905 
	C1503.008789,295.185150 1503.008789,258.827423 1503.008789,222.155304 
	C1484.035034,222.155304 1465.728271,222.119751 1447.422607,222.249283 
	C1446.394653,222.256561 1445.376465,223.623764 1444.353638,224.358063 
	C1445.491943,225.148972 1446.578125,226.512604 1447.778564,226.621857 
	C1451.189941,226.932281 1454.647705,226.730728 1458.210693,226.730728 
	C1458.210693,262.183868 1458.210693,296.908020 1458.210693,332.154877 
	C1454.762207,332.154877 1451.625610,332.022278 1448.511230,332.227325 
	C1447.430664,332.298462 1446.405273,333.206543 1445.354614,333.732391 
	C1445.994141,334.695007 1446.633545,335.657593 1448.133301,336.656036 
M1501.502441,196.905273 
	C1512.164673,178.496353 1502.378052,161.105835 1481.306885,161.031204 
	C1479.810059,161.025894 1478.301270,161.008316 1476.818115,161.175446 
	C1467.763550,162.195847 1461.126343,166.508301 1458.255249,175.464874 
	C1455.259521,184.810211 1458.161987,195.661255 1464.575317,201.195679 
	C1471.969360,207.576263 1494.274292,208.032455 1501.502441,196.905273 
z"/>
<path fill="#FC53E0" opacity="1.000000" stroke="none" 
	d="
M536.580994,358.590942 
	C502.683655,413.557343 454.698883,448.234894 391.404053,459.864685 
	C326.632507,471.765747 267.977905,456.363647 216.961823,414.878815 
	C176.023560,381.588959 150.430923,338.329437 142.198303,286.072815 
	C130.207901,209.963638 152.740265,144.796494 208.880539,92.116989 
	C241.984222,61.054001 281.914154,43.195930 327.151917,37.987473 
	C386.663910,31.135548 440.176422,46.439529 486.742584,83.886292 
	C529.492371,118.264076 555.373535,163.203842 563.695129,217.452011 
	C571.348755,267.345703 562.239014,314.490082 536.580994,358.590942 
M221.601379,102.076469 
	C215.106964,108.767082 208.229263,115.130081 202.183151,122.203857 
	C172.799576,156.581757 157.415558,196.665787 155.206757,241.668259 
	C153.844513,269.422791 158.009323,296.580566 168.901886,322.227997 
	C200.230957,395.994965 256.115295,437.919495 335.606476,446.585693 
	C376.497498,451.043640 415.293701,441.745148 451.248077,421.108521 
	C531.986389,374.767303 569.541809,277.148132 540.168579,188.374130 
	C523.974426,139.430725 493.039398,102.157898 448.053680,77.182053 
	C401.684296,51.438026 352.348358,46.167484 301.134583,59.361973 
	C271.456696,67.008041 245.253403,81.514076 221.601379,102.076469 
z"/>
<path fill="#F310E7" opacity="1.000000" stroke="none" 
	d="
M758.992371,274.000305 
	C758.992371,267.190948 758.992371,260.881500 758.992371,254.212173 
	C743.114319,254.212173 727.544006,254.212173 711.553528,254.212173 
	C711.553528,279.829926 711.553528,305.539948 711.553528,331.835754 
	C715.815063,331.835754 720.216125,331.835754 724.833069,331.835754 
	C724.833069,333.660492 724.833069,334.901550 724.833069,336.337952 
	C723.484253,336.459869 722.348755,336.651123 721.213135,336.652008 
	C699.051270,336.669739 676.889343,336.649109 654.727539,336.685272 
	C651.847534,336.689972 649.086060,336.841370 650.601929,332.038940 
	C654.873840,332.038940 659.295898,332.038940 663.980286,332.038940 
	C663.980286,278.928528 663.980286,226.342590 663.980286,173.208984 
	C659.574585,173.208984 655.162781,173.208984 650.724976,173.208984 
	C649.452148,169.544571 650.356567,168.278214 653.856995,168.291458 
	C676.351807,168.376556 698.847290,168.377625 721.342102,168.286209 
	C724.463074,168.273529 725.760803,169.199081 724.671814,172.930618 
	C720.495911,172.930618 716.100952,172.930618 711.426758,172.930618 
	C711.426758,197.904175 711.426758,222.300400 711.426758,247.015747 
	C727.226196,247.015747 742.800720,247.015747 758.684753,247.015747 
	C758.684753,222.527176 758.684753,198.112610 758.684753,173.173920 
	C754.276550,173.173920 749.860291,173.173920 745.188477,173.173920 
	C745.188477,171.410416 745.188477,170.166794 745.188477,168.628250 
	C769.896423,168.628250 794.499939,168.628250 819.607117,168.628250 
	C819.721375,169.878036 819.843079,171.209396 820.000488,172.931061 
	C815.285400,172.931061 810.997375,172.931061 806.310669,172.931061 
	C806.310669,225.974075 806.310669,278.672699 806.310669,331.878937 
	C810.661682,331.878937 815.083313,331.878937 819.736816,331.878937 
	C819.736816,333.627716 819.736816,334.870605 819.736816,336.391418 
	C794.996338,336.391418 770.391357,336.391418 745.284912,336.391418 
	C745.184509,335.084320 745.082642,333.758942 744.953064,332.072388 
	C749.698120,332.072388 753.988098,332.072388 758.992371,332.072388 
	C758.992371,312.669922 758.992371,293.585052 758.992371,274.000305 
z"/>
<path fill="#F310E7" opacity="1.000000" stroke="none" 
	d="
M1015.790955,293.000000 
	C1015.790833,306.138306 1015.790833,318.776611 1015.790833,331.866486 
	C1018.527100,332.023285 1020.949524,332.162079 1023.615234,332.314819 
	C1024.711426,334.754425 1025.109619,336.680176 1021.256165,336.673401 
	C1000.764587,336.637360 980.273010,336.637817 959.781433,336.604523 
	C959.309509,336.603760 958.838013,336.354431 958.388062,336.227234 
	C958.138184,333.260559 958.138184,333.260559 970.698059,331.715271 
	C970.698059,297.011475 970.698059,262.269653 970.698059,227.439728 
	C966.483215,226.807220 962.252441,226.206650 958.056274,225.420975 
	C957.882812,225.388489 958.034119,223.621658 958.034119,222.409424 
	C977.269165,222.409424 996.187927,222.409424 1015.703918,222.409424 
	C1015.703918,228.744919 1015.703918,234.923584 1015.703918,241.102264 
	C1023.944458,223.636505 1038.260498,218.548019 1055.854126,220.139297 
	C1070.822754,221.493149 1079.527710,230.371521 1083.312378,245.063431 
	C1083.833618,243.955597 1084.147095,243.387161 1084.376831,242.786636 
	C1093.825806,218.086472 1118.247681,216.719055 1134.505981,222.618500 
	C1145.881958,226.746429 1150.958008,236.145111 1152.871216,247.431137 
	C1153.673462,252.162842 1153.927368,257.033234 1153.952148,261.843048 
	C1154.062378,283.334167 1154.000122,304.826172 1154.000122,326.317841 
	C1154.000122,328.104065 1154.000122,329.890259 1154.000122,332.153656 
	C1157.798462,332.153656 1161.104126,331.973572 1164.370117,332.255707 
	C1165.448364,332.348846 1166.423706,333.634918 1167.446045,334.375549 
	C1166.438843,335.137695 1165.435913,336.558197 1164.423828,336.564728 
	C1144.265869,336.695160 1124.106567,336.630127 1103.947998,336.693054 
	C1100.475586,336.703888 1100.744629,334.887573 1101.321777,332.342499 
	C1103.799316,332.220795 1106.097900,332.107880 1108.782104,331.976013 
	C1108.917114,330.691437 1109.166748,329.425232 1109.166138,328.159149 
	C1109.152832,301.503143 1109.146973,274.846985 1109.031372,248.191299 
	C1109.016235,244.713806 1108.617188,241.203018 1108.028442,237.770660 
	C1106.991943,231.725296 1102.713379,229.535645 1097.547241,232.887711 
	C1094.611450,234.792618 1091.620117,237.693665 1090.338379,240.833710 
	C1087.921997,246.753616 1085.414795,253.136551 1085.251953,259.387115 
	C1084.640259,282.862335 1084.955811,306.361847 1084.942383,329.852234 
	C1084.942017,330.480225 1085.152588,331.108307 1085.339111,332.152374 
	C1087.088623,332.152374 1088.771118,331.895782 1090.322266,332.237000 
	C1091.476440,332.490875 1092.460449,333.518921 1093.520264,334.202209 
	C1092.390747,335.022522 1091.293823,336.492218 1090.125977,336.551117 
	C1084.974365,336.810974 1079.802246,336.664917 1074.637573,336.664948 
	C1061.642578,336.664978 1048.647461,336.617828 1035.652954,336.699829 
	C1032.708740,336.718384 1031.027954,336.086517 1032.343994,332.374451 
	C1034.637573,332.238800 1037.069092,332.095001 1039.746704,331.936615 
	C1039.866943,330.653076 1040.063965,329.532379 1040.063599,328.411713 
	C1040.054321,301.755554 1040.063232,275.099243 1039.950806,248.443436 
	C1039.935547,244.798859 1039.516235,241.118774 1038.894409,237.522461 
	C1037.897705,231.757797 1033.510986,229.646606 1028.657959,232.913437 
	C1026.005005,234.699280 1023.190674,237.306732 1022.118958,240.168945 
	C1019.527954,247.088531 1016.885132,254.272186 1016.159668,261.538696 
	C1015.138245,271.769440 1015.831177,282.171295 1015.790955,293.000000 
z"/>
<path fill="#F30FE7" opacity="1.000000" stroke="none" 
	d="
M1361.426880,220.735504 
	C1373.705566,224.553207 1385.750977,227.854706 1397.506714,231.981598 
	C1423.994507,241.280243 1436.146973,261.401031 1432.807495,289.549072 
	C1429.666870,316.022247 1411.332153,334.653503 1385.509521,338.151917 
	C1367.786865,340.552979 1350.725342,336.763184 1333.561279,333.538574 
	C1331.599121,333.169891 1329.584717,332.978027 1327.682983,332.408722 
	C1323.064575,331.026031 1319.997314,332.559601 1317.921753,336.847260 
	C1317.465576,337.789673 1316.002441,338.244659 1315.003052,338.924133 
	C1314.453613,338.060364 1313.459839,337.216370 1313.420288,336.329895 
	C1312.621094,318.384155 1311.931396,300.433533 1311.222778,282.560669 
	C1314.628906,280.854980 1315.812622,282.798981 1317.128418,285.207153 
	C1325.526611,300.576569 1335.964844,314.363708 1350.262573,324.688263 
	C1362.703247,333.671967 1376.436646,336.868103 1391.305054,331.102753 
	C1400.160522,327.668945 1406.088989,321.669220 1407.118164,311.740540 
	C1408.223999,301.071045 1405.497437,291.667267 1395.477539,286.767761 
	C1385.236694,281.760223 1374.252441,278.283325 1363.636963,274.028595 
	C1353.641479,270.022461 1343.271118,266.678070 1333.838379,261.605560 
	C1319.211914,253.740021 1313.033569,240.090515 1312.109009,223.998444 
	C1310.168091,190.219360 1332.340698,166.137375 1366.171875,166.193542 
	C1377.020874,166.211548 1387.881470,168.772919 1398.706177,170.378021 
	C1406.025879,171.463409 1413.643921,177.061508 1420.003906,167.382797 
	C1420.367432,167.747665 1420.730835,168.112518 1421.094360,168.477386 
	C1421.706787,184.459610 1422.319214,200.441833 1422.927612,216.315414 
	C1419.319702,218.142822 1418.426880,215.599457 1416.947876,213.563080 
	C1409.531982,203.352356 1402.710571,192.581223 1394.295532,183.256561 
	C1383.253296,171.020309 1368.849121,167.985443 1353.161865,173.106155 
	C1343.483521,176.265411 1337.567505,182.948364 1336.639893,193.492828 
	C1335.738281,203.742462 1340.262329,210.784454 1349.286011,215.183060 
	C1353.168091,217.075455 1357.134155,218.795578 1361.426880,220.735504 
z"/>
<path fill="#F30EE7" opacity="1.000000" stroke="none" 
	d="
M1221.845703,220.856445 
	C1234.290894,219.184067 1246.230713,219.510574 1258.004272,222.435501 
	C1277.020386,227.159637 1288.545288,239.368057 1292.669800,258.372223 
	C1295.638916,272.052673 1295.412842,285.810974 1292.187744,299.481110 
	C1287.377075,319.871704 1274.498901,332.198944 1254.290649,336.809052 
	C1240.469482,339.962036 1226.480347,339.987183 1212.685547,336.643402 
	C1192.118530,331.658173 1179.410645,318.711761 1174.850830,297.948822 
	C1171.979614,284.875397 1171.860229,271.730652 1175.512207,258.876740 
	C1182.051392,235.860291 1198.532593,224.411285 1221.845703,220.856445 
M1244.729614,231.066864 
	C1242.390015,226.163742 1238.490479,223.759277 1233.087524,224.217529 
	C1227.238281,224.713684 1223.624634,228.218079 1222.171143,233.688721 
	C1221.109619,237.683472 1220.159058,241.836060 1220.067871,245.938507 
	C1219.612549,266.415161 1219.100830,286.903687 1219.397461,307.376617 
	C1219.496094,314.192749 1221.398682,321.144592 1223.469849,327.721649 
	C1225.289062,333.499084 1230.374512,335.562958 1236.356812,334.358154 
	C1242.418945,333.137268 1246.660278,328.602966 1246.877808,320.357269 
	C1247.527100,295.739075 1247.670532,271.103241 1247.630615,246.474884 
	C1247.622681,241.581223 1245.923218,236.690292 1244.729614,231.066864 
z"/>
<path fill="#F30EE7" opacity="1.000000" stroke="none" 
	d="
M853.565674,330.478271 
	C836.330139,319.672852 830.129700,303.228485 829.618958,284.440002 
	C829.369446,275.262085 830.251221,265.681030 832.733032,256.877899 
	C838.078979,237.916000 851.799377,226.852966 870.597107,222.319748 
	C885.525452,218.719650 900.600098,218.842865 915.556213,222.792343 
	C933.736389,227.593216 944.720337,239.351898 948.888855,257.494690 
	C952.106445,271.498444 952.002747,285.619232 948.647888,299.562653 
	C944.000366,318.878479 932.190979,331.575653 912.610474,336.202057 
	C892.469482,340.960907 872.700684,340.471649 853.565674,330.478271 
M904.998657,288.499939 
	C904.969910,278.840607 905.296814,269.163147 904.806274,259.527313 
	C904.368103,250.918808 903.467651,242.277039 901.942322,233.799088 
	C900.772461,227.297058 896.513794,224.222061 890.923096,224.145279 
	C884.951477,224.063248 880.834900,227.060303 878.775024,233.302170 
	C877.947449,235.809967 877.147461,238.457001 877.071716,241.062088 
	C876.486633,261.181702 875.906494,281.304718 875.701172,301.430573 
	C875.608154,310.543884 875.560425,319.754028 879.965210,328.271240 
	C884.011353,336.094940 895.214844,337.046326 900.090332,329.658691 
	C901.513794,327.501678 902.776733,324.858032 902.983337,322.344574 
	C903.881775,311.415039 904.363159,300.451263 904.998657,288.499939 
z"/>
<path fill="#F30FE7" opacity="1.000000" stroke="none" 
	d="
M1602.031738,264.026489 
	C1595.095215,257.240173 1595.680542,249.575333 1598.193970,241.385193 
	C1599.629517,241.303131 1600.980469,240.983841 1602.242065,241.195953 
	C1607.541016,242.086731 1608.504150,238.455200 1608.748657,234.686813 
	C1609.035767,230.262878 1605.818970,229.136108 1602.151733,229.044205 
	C1596.880371,228.912079 1592.969482,231.602844 1589.743408,235.449661 
	C1584.233887,242.018814 1580.471924,249.776764 1580.283081,258.125183 
	C1579.730469,282.559174 1580.086426,307.013763 1580.086426,332.153778 
	C1584.310303,332.153778 1588.759277,332.026672 1593.191406,332.241943 
	C1594.318970,332.296692 1595.393799,333.438965 1596.492798,334.081543 
	C1595.408691,334.941101 1594.329346,336.543701 1593.239746,336.550629 
	C1570.425903,336.695648 1547.610474,336.695618 1524.796509,336.553680 
	C1523.678711,336.546753 1522.570557,334.988281 1521.457886,334.152252 
	C1522.535889,333.486206 1523.573364,332.341034 1524.699707,332.245728 
	C1527.824219,331.981354 1530.985962,332.154083 1534.477783,332.154083 
	C1534.477783,296.944366 1534.477783,262.089539 1534.477783,226.730270 
	C1531.095337,226.730270 1527.942505,226.955353 1524.851318,226.617386 
	C1523.647095,226.485718 1522.581421,225.085709 1521.452637,224.263458 
	C1522.495605,223.560455 1523.534424,222.251862 1524.582275,222.244553 
	C1542.555908,222.119095 1560.530762,222.154419 1579.173828,222.154419 
	C1579.173828,228.428345 1579.173828,234.474747 1579.173828,240.521149 
	C1579.564941,240.618179 1579.956055,240.715195 1580.347168,240.812225 
	C1581.013428,239.637497 1581.713867,238.480637 1582.340942,237.285263 
	C1589.573975,223.496155 1605.584595,216.621368 1620.523804,221.084122 
	C1628.577271,223.489914 1634.307983,228.531921 1636.097534,237.010071 
	C1638.097168,246.482834 1637.722046,255.772919 1630.567749,263.213623 
	C1624.163574,269.874390 1611.198975,270.098724 1602.031738,264.026489 
z"/>
<path fill="#F30FE7" opacity="1.000000" stroke="none" 
	d="
M1447.703125,336.638123 
	C1446.633545,335.657593 1445.994141,334.695007 1445.354614,333.732391 
	C1446.405273,333.206543 1447.430664,332.298462 1448.511230,332.227325 
	C1451.625610,332.022278 1454.762207,332.154877 1458.210693,332.154877 
	C1458.210693,296.908020 1458.210693,262.183868 1458.210693,226.730728 
	C1454.647705,226.730728 1451.189941,226.932281 1447.778564,226.621857 
	C1446.578125,226.512604 1445.491943,225.148972 1444.353638,224.358032 
	C1445.376465,223.623764 1446.394653,222.256561 1447.422607,222.249283 
	C1465.728271,222.119751 1484.035034,222.155304 1503.008789,222.155304 
	C1503.008789,258.827423 1503.008789,295.185150 1503.008789,331.977905 
	C1507.755981,331.977905 1511.857422,331.977905 1515.874146,331.977905 
	C1518.189575,336.466278 1515.701416,336.685486 1512.616333,336.680267 
	C1491.121948,336.643829 1469.627686,336.658051 1447.703125,336.638123 
z"/>
<path fill="#F30EE7" opacity="1.000000" stroke="none" 
	d="
M1501.281250,197.195740 
	C1494.274292,208.032455 1471.969360,207.576263 1464.575317,201.195679 
	C1458.161987,195.661255 1455.259521,184.810211 1458.255249,175.464874 
	C1461.126343,166.508301 1467.763550,162.195847 1476.818115,161.175446 
	C1478.301270,161.008316 1479.810059,161.025894 1481.306885,161.031204 
	C1502.378052,161.105835 1512.164673,178.496353 1501.281250,197.195740 
z"/>
<path fill="#FFFEFF" opacity="1.000000" stroke="none" 
	d="
M221.871185,101.846878 
	C245.253403,81.514076 271.456696,67.008041 301.134583,59.361973 
	C352.348358,46.167484 401.684296,51.438026 448.053680,77.182053 
	C493.039398,102.157898 523.974426,139.430725 540.168579,188.374130 
	C569.541809,277.148132 531.986389,374.767303 451.248077,421.108521 
	C415.293701,441.745148 376.497498,451.043640 335.606476,446.585693 
	C256.115295,437.919495 200.230957,395.994965 168.901886,322.227997 
	C158.009323,296.580566 153.844513,269.422791 155.206757,241.668259 
	C157.415558,196.665787 172.799576,156.581757 202.183151,122.203857 
	C208.229263,115.130081 215.106964,108.767082 221.871185,101.846878 
M263.523743,367.535767 
	C265.504120,367.710907 267.484406,368.037994 269.464844,368.038971 
	C324.622131,368.066467 379.779388,368.067078 434.936676,368.055237 
	C444.921051,368.053070 449.050781,363.852631 449.055603,353.718384 
	C449.069946,323.723480 449.061188,293.728607 449.061493,263.733704 
	C449.061493,262.011475 449.061493,260.289246 449.061493,257.914001 
	C451.428925,259.704559 452.909637,261.036377 454.582031,262.052795 
	C461.908936,266.505798 471.315063,262.338196 472.801880,253.975418 
	C473.651917,249.194519 471.249847,245.732880 468.033813,242.521896 
	C433.128601,207.671158 398.264801,172.778992 363.381927,137.905869 
	C355.222290,129.748489 349.902863,129.742218 341.787689,137.855545 
	C307.377075,172.258286 272.970245,206.664825 238.568008,241.075912 
	C237.273254,242.371002 235.906113,243.625458 234.801834,245.073563 
	C230.796310,250.326141 231.354660,256.404114 236.131729,260.761749 
	C240.873245,265.086975 246.988388,265.091522 251.880234,260.797424 
	C252.894058,259.907501 253.972855,259.091553 255.758667,257.644196 
	C255.758667,260.529572 255.758621,262.332458 255.758667,264.135376 
	C255.759506,294.296906 255.818604,324.458649 255.709763,354.619781 
	C255.689163,360.330933 257.379883,364.715729 263.523743,367.535767 
z"/>
<path fill="#FFFCFF" opacity="1.000000" stroke="none" 
	d="
M1244.866699,231.432480 
	C1245.923218,236.690292 1247.622681,241.581223 1247.630615,246.474884 
	C1247.670532,271.103241 1247.527100,295.739075 1246.877808,320.357269 
	C1246.660278,328.602966 1242.418945,333.137268 1236.356812,334.358154 
	C1230.374512,335.562958 1225.289062,333.499084 1223.469849,327.721649 
	C1221.398682,321.144592 1219.496094,314.192749 1219.397461,307.376617 
	C1219.100830,286.903687 1219.612549,266.415161 1220.067871,245.938507 
	C1220.159058,241.836060 1221.109619,237.683472 1222.171143,233.688721 
	C1223.624634,228.218079 1227.238281,224.713684 1233.087524,224.217529 
	C1238.490479,223.759277 1242.390015,226.163742 1244.866699,231.432480 
z"/>
<path fill="#FFFCFF" opacity="1.000000" stroke="none" 
	d="
M904.997314,288.999939 
	C904.363159,300.451263 903.881775,311.415039 902.983337,322.344574 
	C902.776733,324.858032 901.513794,327.501678 900.090332,329.658691 
	C895.214844,337.046326 884.011353,336.094940 879.965210,328.271240 
	C875.560425,319.754028 875.608154,310.543884 875.701172,301.430573 
	C875.906494,281.304718 876.486633,261.181702 877.071716,241.062088 
	C877.147461,238.457001 877.947449,235.809967 878.775024,233.302170 
	C880.834900,227.060303 884.951477,224.063248 890.923096,224.145279 
	C896.513794,224.222061 900.772461,227.297058 901.942322,233.799088 
	C903.467651,242.277039 904.368103,250.918808 904.806274,259.527313 
	C905.296814,269.163147 904.969910,278.840607 904.997314,288.999939 
z"/>
<path fill="#FC51E0" opacity="1.000000" stroke="none" 
	d="
M263.147919,367.373871 
	C257.379883,364.715729 255.689163,360.330933 255.709763,354.619781 
	C255.818604,324.458649 255.759506,294.296906 255.758667,264.135376 
	C255.758621,262.332458 255.758667,260.529572 255.758667,257.644196 
	C253.972855,259.091553 252.894058,259.907501 251.880234,260.797424 
	C246.988388,265.091522 240.873245,265.086975 236.131729,260.761749 
	C231.354660,256.404114 230.796310,250.326141 234.801834,245.073563 
	C235.906113,243.625458 237.273254,242.371002 238.568008,241.075912 
	C272.970245,206.664825 307.377075,172.258286 341.787689,137.855545 
	C349.902863,129.742218 355.222290,129.748489 363.381927,137.905869 
	C398.264801,172.778992 433.128601,207.671158 468.033813,242.521896 
	C471.249847,245.732880 473.651917,249.194519 472.801880,253.975418 
	C471.315063,262.338196 461.908936,266.505798 454.582031,262.052795 
	C452.909637,261.036377 451.428925,259.704559 449.061493,257.914001 
	C449.061493,260.289246 449.061493,262.011475 449.061493,263.733704 
	C449.061188,293.728607 449.069946,323.723480 449.055603,353.718384 
	C449.050781,363.852631 444.921051,368.053070 434.936676,368.055237 
	C379.779388,368.067078 324.622131,368.066467 269.464844,368.038971 
	C267.484406,368.037994 265.504120,367.710907 263.147919,367.373871 
M309.438171,202.938110 
	C300.248260,212.131805 290.969025,221.239487 281.954681,230.602188 
	C280.415649,232.200653 279.210571,234.885818 279.199554,237.075775 
	C279.028137,271.072601 279.139435,305.070740 279.006134,339.067902 
	C278.988586,343.543152 280.739502,344.807068 284.937744,344.798737 
	C329.934479,344.709473 374.931580,344.707489 419.928253,344.807037 
	C423.786255,344.815552 425.111450,343.727753 425.093689,339.688110 
	C424.943665,305.524414 425.056000,271.359589 424.895386,237.196014 
	C424.885010,234.998627 423.833008,232.245300 422.305176,230.700241 
	C400.158600,208.303543 377.803314,186.113312 355.631439,163.741425 
	C352.809814,160.894333 351.128998,161.082336 348.416870,163.848602 
	C335.700195,176.819199 322.783386,189.593582 309.438171,202.938110 
z"/>
<path fill="#FFFDFF" opacity="1.000000" stroke="none" 
	d="
M309.688110,202.688080 
	C322.783386,189.593582 335.700195,176.819199 348.416870,163.848602 
	C351.128998,161.082336 352.809814,160.894333 355.631439,163.741425 
	C377.803314,186.113312 400.158600,208.303543 422.305176,230.700241 
	C423.833008,232.245300 424.885010,234.998627 424.895386,237.196014 
	C425.056000,271.359589 424.943665,305.524414 425.093689,339.688110 
	C425.111450,343.727753 423.786255,344.815552 419.928253,344.807037 
	C374.931580,344.707489 329.934479,344.709473 284.937744,344.798737 
	C280.739502,344.807068 278.988586,343.543152 279.006134,339.067902 
	C279.139435,305.070740 279.028137,271.072601 279.199554,237.075775 
	C279.210571,234.885818 280.415649,232.200653 281.954681,230.602188 
	C290.969025,221.239487 300.248260,212.131805 309.688110,202.688080 
M335.915833,296.340546 
	C335.981171,307.804565 339.412567,311.246338 350.826721,311.253601 
	C364.983673,311.262634 379.140747,311.287231 393.297546,311.241302 
	C402.169128,311.212494 406.643127,307.082855 406.759766,298.231659 
	C406.955048,283.411102 406.954895,268.584137 406.755859,253.763657 
	C406.637848,244.976471 402.119781,240.878464 393.154175,240.851028 
	C378.497681,240.806168 363.840851,240.803864 349.184387,240.854279 
	C339.915039,240.886185 335.948944,244.962128 335.925415,254.406601 
	C335.891418,268.063812 335.915924,281.721191 335.915833,296.340546 
z"/>
<path fill="#FC51E0" opacity="1.000000" stroke="none" 
	d="
M335.915649,295.859497 
	C335.915924,281.721191 335.891418,268.063812 335.925415,254.406601 
	C335.948944,244.962128 339.915039,240.886185 349.184387,240.854279 
	C363.840851,240.803864 378.497681,240.806168 393.154175,240.851028 
	C402.119781,240.878464 406.637848,244.976471 406.755859,253.763657 
	C406.954895,268.584137 406.955048,283.411102 406.759766,298.231659 
	C406.643127,307.082855 402.169128,311.212494 393.297546,311.241302 
	C379.140747,311.287231 364.983673,311.262634 350.826721,311.253601 
	C339.412567,311.246338 335.981171,307.804565 335.915649,295.859497 
M359.265472,265.954834 
	C359.265472,273.201111 359.265472,280.447388 359.265472,287.683105 
	C367.556030,287.683105 374.995392,287.683105 382.561707,287.683105 
	C382.561707,279.729279 382.561707,272.051392 382.561707,263.655884 
	C374.544708,264.150085 367.010986,264.614502 359.265472,265.954834 
z"/>
<path fill="#FFF9FE" opacity="1.000000" stroke="none" 
	d="
M359.371338,265.516846 
	C367.010986,264.614502 374.544708,264.150085 382.561707,263.655884 
	C382.561707,272.051392 382.561707,279.729279 382.561707,287.683105 
	C374.995392,287.683105 367.556030,287.683105 359.265472,287.683105 
	C359.265472,280.447388 359.265472,273.201111 359.371338,265.516846 
z"/>
</svg>